<svg width="25" height="25" viewBox="0 0 25 25" fill="none" xmlns="http://www.w3.org/2000/svg">
<path d="M16.6667 8.3335C18.3244 8.3335 19.9141 8.99198 21.0862 10.1641C22.2583 11.3362 22.9167 12.9259 22.9167 14.5835V21.8752H18.7501V14.5835C18.7501 14.031 18.5306 13.5011 18.1399 13.1104C17.7492 12.7197 17.2193 12.5002 16.6667 12.5002C16.1142 12.5002 15.5843 12.7197 15.1936 13.1104C14.8029 13.5011 14.5834 14.031 14.5834 14.5835V21.8752H10.4167V14.5835C10.4167 12.9259 11.0752 11.3362 12.2473 10.1641C13.4194 8.99198 15.0091 8.3335 16.6667 8.3335Z" stroke="black" stroke-width="2" stroke-linecap="round" stroke-linejoin="round"/>
<path d="M6.24992 9.375H2.08325V21.875H6.24992V9.375Z" stroke="black" stroke-width="2" stroke-linecap="round" stroke-linejoin="round"/>
<path d="M4.16659 6.25016C5.31718 6.25016 6.24992 5.31742 6.24992 4.16683C6.24992 3.01624 5.31718 2.0835 4.16659 2.0835C3.01599 2.0835 2.08325 3.01624 2.08325 4.16683C2.08325 5.31742 3.01599 6.25016 4.16659 6.25016Z" stroke="black" stroke-width="2" stroke-linecap="round" stroke-linejoin="round"/>
</svg>
