<svg width="19" height="23" viewBox="0 0 19 23" fill="none" xmlns="http://www.w3.org/2000/svg">
<path d="M12.6251 21.9168V17.7502C12.77 16.4453 12.3959 15.1357 11.5834 14.1043C14.7084 14.1043 17.8334 12.021 17.8334 8.37516C17.9168 7.07308 17.5522 5.79183 16.7918 4.72933C17.0834 3.53141 17.0834 2.28141 16.7918 1.0835C16.7918 1.0835 15.7501 1.0835 13.6668 2.646C10.9168 2.12516 8.08344 2.12516 5.33344 2.646C3.25011 1.0835 2.20844 1.0835 2.20844 1.0835C1.89594 2.28141 1.89594 3.53141 2.20844 4.72933C1.44998 5.78754 1.08185 7.07598 1.16678 8.37516C1.16678 12.021 4.29178 14.1043 7.41678 14.1043C7.01053 14.6147 6.70844 15.1981 6.53136 15.8231C6.35428 16.4481 6.30219 17.1043 6.37511 17.7502V21.9168" stroke="black" stroke-width="2" stroke-linecap="round" stroke-linejoin="round"/>
</svg>
