<svg width="59" height="42" viewBox="0 0 59 42" fill="none" xmlns="http://www.w3.org/2000/svg">
<g id="Vector">
<path id="Vector_2" d="M4.16667 0H25C26.1051 0 27.1649 0.438987 27.9463 1.22039C28.7277 2.00179 29.1667 3.0616 29.1667 4.16667C29.1667 5.27174 28.7277 6.33154 27.9463 7.11295C27.1649 7.89435 26.1051 8.33333 25 8.33333H4.16667C3.0616 8.33333 2.00179 7.89435 1.22039 7.11295C0.438987 6.33154 0 5.27174 0 4.16667C0 3.0616 0.438987 2.00179 1.22039 1.22039C2.00179 0.438987 3.0616 0 4.16667 0ZM33.3333 33.3333H54.1667C55.2717 33.3333 56.3315 33.7723 57.1129 34.5537C57.8943 35.3351 58.3333 36.3949 58.3333 37.5C58.3333 38.6051 57.8943 39.6649 57.1129 40.4463C56.3315 41.2277 55.2717 41.6667 54.1667 41.6667H33.3333C32.2283 41.6667 31.1685 41.2277 30.3871 40.4463C29.6057 39.6649 29.1667 38.6051 29.1667 37.5C29.1667 36.3949 29.6057 35.3351 30.3871 34.5537C31.1685 33.7723 32.2283 33.3333 33.3333 33.3333ZM4.16667 16.6667H54.1667C55.2717 16.6667 56.3315 17.1057 57.1129 17.8871C57.8943 18.6685 58.3333 19.7283 58.3333 20.8333C58.3333 21.9384 57.8943 22.9982 57.1129 23.7796C56.3315 24.561 55.2717 25 54.1667 25H4.16667C3.0616 25 2.00179 24.561 1.22039 23.7796C0.438987 22.9982 0 21.9384 0 20.8333C0 19.7283 0.438987 18.6685 1.22039 17.8871C2.00179 17.1057 3.0616 16.6667 4.16667 16.6667Z" fill="black"/>
</g>
</svg>
